<?xml version="1.0" standalone="no"?>
<!DOCTYPE svg PUBLIC "-//W3C//DTD SVG 20010904//EN"
 "http://www.w3.org/TR/2001/REC-SVG-20010904/DTD/svg10.dtd">
<svg version="1.0" xmlns="http://www.w3.org/2000/svg"
 width="1280.000000pt" height="640.000000pt" viewBox="0 0 1280.000000 640.000000"
 preserveAspectRatio="xMidYMid meet">
<g transform="translate(0.000000,640.000000) scale(0.100000,-0.100000)"
fill="#000000" stroke="none">
<path d="M11570 4421 c-742 -222 -2348 -700 -2433 -724 -20 -5 -39 -8 -40 -6
-2 2 -24 39 -50 81 -56 91 -99 130 -136 126 -45 -5 -56 -45 -55 -201 l1 -137
-71 -21 c-131 -38 -141 -41 -163 -61 -46 -42 -1214 -317 -2133 -502 -508 -102
-1250 -232 -1855 -325 -1199 -184 -2485 -332 -3875 -446 -546 -44 -585 -48
-589 -51 -2 -2 11 -25 28 -53 44 -69 121 -138 189 -169 94 -43 225 -42 987 9
2208 147 4508 483 6875 1005 414 92 637 134 712 134 46 0 48 -1 103 -70 31
-39 67 -77 80 -86 56 -36 104 14 105 108 1 68 16 128 36 144 11 8 38 24 61 34
37 17 1107 354 1633 515 224 69 1117 355 1324 424 163 55 244 104 273 166 15
31 15 39 -1 107 -22 88 -49 155 -79 187 -26 28 -77 51 -109 50 -13 -1 -381
-108 -818 -238z"/>
</g>
</svg>
